/* XPM */
static char *_80ebe4622bd47c6a57e84554a014921mqxCLzviuionchNO[] = {
/* columns rows colors chars-per-pixel */
"64 64 12 1 ",
"  c #353535",
". c #3F3F3F",
"X c #553A1F",
"o c #5A4424",
"O c #664D28",
"+ c #6B5332",
"@ c #785836",
"# c #686868",
"$ c #797979",
"% c #805E36",
"& c gray55",
"* c #A2A2A2",
/* pixels */
"OO%%@@oo%%%%XX%%++oo@@%%oo@@++OOOO++@@oo%%@@oo++%%XX%%%%oo@@%%OO",
"OO%%@@oo%%%%XX%%++oo@@%%oo@@++OOOO++@@oo%%@@oo++%%XX%%%%oo@@%%OO",
"OO%%@@oo%%++XXOO++oo++@@oo++@@OOOO@@++oo@@++oo++OOXX++%%oo@@%%OO",
"OO%%@@oo%%++XXOO++oo++@@oo++@@OOOO@@++oo@@++oo++OOXX++%%oo@@%%OO",
"OO++%%XX@@@@ooOO++XX@@++XX%%++OOOO++%%XX++@@XX++OOoo@@@@XX%%++OO",
"OO++%%XX@@@@ooOO++XX@@++XX%%++OOOO++%%XX++@@XX++OOoo@@@@XX%%++OO",
"  ..##oo..##oo..##oo..##oo..##    ##..oo##..oo##..oo##..oo##..  ",
"  ..##oo..##oo..##oo..##oo..##    ##..oo##..oo##..oo##..oo##..  ",
"##OO++ooOO++XXOO++ooOO++XXOO++OOOO++OOXX++OOoo++OOXX++OOoo++OO##",
"##OO++ooOO++XXOO++ooOO++XXOO++OOOO++OOXX++OOoo++OOXX++OOoo++OO##",
"OO++%%XX++@@oo++%%XX++%%XX%%OOOOOOOO%%XX%%++XX%%++oo@@++XX%%++OO",
"OO++%%XX++@@oo++%%XX++%%XX%%OOOOOOOO%%XX%%++XX%%++oo@@++XX%%++OO",
"OO++%%XX@@@@ooOO++XX@@++XX%%++OOOO++%%XX++@@XX++OOoo@@@@XX%%++OO",
"OO++%%XX@@@@ooOO++XX@@++XX%%++OOOO++%%XX++@@XX++OOoo@@@@XX%%++OO",
"OO@@@@XX@@++ooOO++oo@@OOXX@@++OOOO++@@XXOO@@oo++OOoo++@@XX@@@@OO",
"OO@@@@XX@@++ooOO++oo@@OOXX@@++OOOO++@@XXOO@@oo++OOoo++@@XX@@@@OO",
"OO@@++XX@@@@oo++OOXX%%OOXX@@@@OOOO@@@@XXOO%%XXOO++oo@@@@XX++@@OO",
"OO@@++XX@@@@oo++OOXX%%OOXX@@@@OOOO@@@@XXOO%%XXOO++oo@@@@XX++@@OO",
"OO%%OOoo%%@@XX++OOXX%%++oo++@@OOOO@@++oo++%%XXOO++XX@@%%ooOO%%OO",
"OO%%OOoo%%@@XX++OOXX%%++oo++@@OOOO@@++oo++%%XXOO++XX@@%%ooOO%%OO",
"OO%%++oo%%++oo%%OOoo%%@@ooOO%%OOOO%%OOoo@@%%ooOO%%oo++%%oo++%%OO",
"OO%%++oo%%++oo%%OOoo%%@@ooOO%%OOOO%%OOoo@@%%ooOO%%oo++%%oo++%%OO",
"OO%%%%oo++OOXX%%%%oo%%%%XXOO++OOOO++OOXX%%%%oo%%%%XXOO++oo%%%%OO",
"OO%%%%oo++OOXX%%%%oo%%%%XXOO++OOOO++OOXX%%%%oo%%%%XXOO++oo%%%%OO",
"  ..##XX..##XX..##oo..##XX..##    ##..XX##..oo##..XX##..XX##..  ",
"  ..##XX..##XX..##oo..##XX..##    ##..XX##..oo##..XX##..XX##..  ",
"OO%%++oo%%++oo%%OOoo%%@@ooOO%%OOOO%%OOoo@@%%ooOO%%oo++%%oo++%%OO",
"OO%%++oo%%++oo%%OOoo%%@@ooOO%%OOOO%%OOoo@@%%ooOO%%oo++%%oo++%%OO",
"OO%%@@oo%%%%XX%%++oo@@%%oo@@++OOOO++@@oo%%@@oo++%%XX%%%%oo@@%%OO",
"OO%%@@oo%%%%XX%%++oo@@%%oo@@++OOOO++@@oo%%@@oo++%%XX%%%%oo@@%%OO",
"OO%%@@oo%%++XXOO++oo++@@oo++@@OOOO@@++oo@@++oo++OOXX++%%oo@@%%OO",
"OO%%@@oo%%++XXOO++oo++@@oo++@@OOOO@@++oo@@++oo++OOXX++%%oo@@%%OO",
"##%%@@oo%%%%XX%%++ooOO**&&OO++OOOO++OO&&**OOoo++%%XX%%%%oo@@%%##",
"##%%@@oo%%%%XX%%++ooOO**&&OO++OOOO++OO&&**OOoo++%%XX%%%%oo@@%%##",
"OO%%@@oo%%++XXOO++oo**OOXX&&@@OOOO@@&&XXOO**oo++OOXX++%%oo@@%%OO",
"OO%%@@oo%%++XXOO++oo**OOXX&&@@OOOO@@&&XXOO**oo++OOXX++%%oo@@%%OO",
"OO++%%XX@@@@ooOO++XX&&%%XX$$++OOOO++$$XX%%&&XX++OOoo@@@@XX%%++OO",
"OO++%%XX@@@@ooOO++XX&&%%XX$$++OOOO++$$XX%%&&XX++OOoo@@@@XX%%++OO",
"  ..##oo..##oo..##ooOO&&$$OO##    ##OO$$&&OOoo##..oo##..oo##..  ",
"  ..##oo..##oo..##ooOO&&$$OO##    ##OO$$&&OOoo##..oo##..oo##..  ",
"OOOO++ooOO++XXOO++ooOO++XXOO++OOOO++OOXX++OOoo++OOXX++OOoo++OOOO",
"OOOO++ooOO++XXOO++ooOO++XXOO++OOOO++OOXX++OOoo++OOXX++OOoo++OOOO",
"OO++%%XX++@@oo++%%XX++%%XX%%OOOOOOOO%%XX%%++XX%%++oo@@++XX%%++OO",
"OO++%%XX++@@oo++%%XX++%%XX%%OOOOOOOO%%XX%%++XX%%++oo@@++XX%%++OO",
"OO++%%XX@@@@ooOO++XX@@++XX%%++OOOO++%%XX++@@XX++OOoo@@@@XX%%++OO",
"OO++%%XX@@@@ooOO++XX@@++XX%%++OOOO++%%XX++@@XX++OOoo@@@@XX%%++OO",
"OO@@@@XX@@++ooOO++oo@@OOXX@@++OOOO++@@XXOO@@oo++OOoo++@@XX@@@@OO",
"OO@@@@XX@@++ooOO++oo@@OOXX@@++OOOO++@@XXOO@@oo++OOoo++@@XX@@@@OO",
"OO@@++XX@@@@oo++OOXX%%OOXX@@@@OOOO@@@@XXOO%%XXOO++oo@@@@XX++@@OO",
"OO@@++XX@@@@oo++OOXX%%OOXX@@@@OOOO@@@@XXOO%%XXOO++oo@@@@XX++@@OO",
"OO%%OOoo%%@@XX++OOXX%%++oo++@@OOOO@@++oo++%%XXOO++XX@@%%ooOO%%OO",
"OO%%OOoo%%@@XX++OOXX%%++oo++@@OOOO@@++oo++%%XXOO++XX@@%%ooOO%%OO",
"OO%%++oo%%++oo%%OOoo%%@@ooOO%%OOOO%%OOoo@@%%ooOO%%oo++%%oo++%%OO",
"OO%%++oo%%++oo%%OOoo%%@@ooOO%%OOOO%%OOoo@@%%ooOO%%oo++%%oo++%%OO",
"##%%%%oo++OOXX%%%%oo%%%%XXOO++OOOO++OOXX%%%%oo%%%%XXOO++oo%%%%##",
"##%%%%oo++OOXX%%%%oo%%%%XXOO++OOOO++OOXX%%%%oo%%%%XXOO++oo%%%%##",
"  ..##XX..##XX..##oo..##XX..##    ##..XX##..oo##..XX##..XX##..  ",
"  ..##XX..##XX..##oo..##XX..##    ##..XX##..oo##..XX##..XX##..  ",
"OO%%++oo%%++oo%%OOoo%%@@ooOO%%OOOO%%OOoo@@%%ooOO%%oo++%%oo++%%OO",
"OO%%++oo%%++oo%%OOoo%%@@ooOO%%OOOO%%OOoo@@%%ooOO%%oo++%%oo++%%OO",
"OO%%@@oo%%%%XX%%++oo@@%%oo@@++OOOO++@@oo%%@@oo++%%XX%%%%oo@@%%OO",
"OO%%@@oo%%%%XX%%++oo@@%%oo@@++OOOO++@@oo%%@@oo++%%XX%%%%oo@@%%OO",
"OO%%@@oo%%++XXOO++oo++@@oo++@@OOOO@@++oo@@++oo++OOXX++%%oo@@%%OO",
"OO%%@@oo%%++XXOO++oo++@@oo++@@OOOO@@++oo@@++oo++OOXX++%%oo@@%%OO"
};
