/* XPM */
static char *_bf9b8728b1a4100acaecbecf08d4b570qlg6sv5vSyoO6u2[] = {
/* columns rows colors chars-per-pixel */
"64 64 10 1 ",
"  c None",
". c #09151F",
"X c #091521",
"o c #0F2A3E",
"O c #2A4127",
"+ c #203A4F",
"@ c #3C5D7B",
"# c #4B7841",
"$ c #729949",
"% c #B5C348",
/* pixels */
"XXooooXXoooooooooo.Xooooooooooooooooo@.oo++++++@@OOoooooo..ooooo",
"XXXooXXXXoXXXooXXXXXXoooooo.....oooooo.ooo++++++OO.o..oo.....ooo",
"XXXXXXXXXXXXXXXXXXXXXX..................oo+++++OO...............",
"@@@@@.@@@@@+++@@@@@@@@++@@@@@++@@@@++@..oo+OOOOO@.@@@@@+++@@@@@+",
"@@@@@.o@@@@@+@@@@@@@@@@@@@@@@@@@@@@@@@.oooO$%%#O@.o@@@@@+@@@@@@@",
"@++@@.oo++@@@@++++++@@@@@+++@@@@++@@@@.ooooOO#$O@.oo+++@@@++++@@",
"+++@@O.o++++@++++++++++++++++@@++++@@@...oo+O#OOO..o++++@@+++++@",
"+++@@O.oo+++++++++++++++++++++++++++@@..ooo+OO@@O..oo+++++++++++",
"++@@@Ooooo++++++++++++++++++o+++++++@@.ooo+++++@O.ooo++o++++++++",
"oo@@@.Oooooo++++++ooOO+++ooooo+++oo+O@.oo++++++OOOOOOOooo+++ooo+",
".ooo@.OOoooooooooooO%%Ooooo.ooooooooOOOOO+++++O####$$OOoooooo.oo",
"...oo..O..oo..o....O%$OOOO...oooo..oO%%$O+++OOO##$$$$$O..ooo...o",
".......OO....OO.....O$$$#OO.........O$$$OO+O++OO#$$$%%O.........",
".@@@@@@@OOOOOOOOO...OO$###O.........OOO##O+O+++OO$$$$%O++@@@@@++",
".o@@@@@@OOO+...ooOO...OO##O...........OO#OO++++@OOOOOOO+@@@@@@@+",
".oo+@@+O###OO..@++Ooo..+OOOoo..........OOOooo+o@+.oo++@@@@++@@@@",
".oo++@OO#$##OO@@+++OOOOO++.OOoo+++o....ooOooooooo.oo+++@++++++@@",
".oo+++O#$$$$#O@@+++++oo+++.+O+++++++++..oO.ooo.oo..oo+++++++++@@",
"..o+++O$$$$$#O@+++++++oo+++oO++++++++++..O.........oo++++++++@@+",
"..oo++OO%%$$%O@+++++++++++++O++++++++++++O++++.......o+++++++@@+",
".ooo+++OOOOO%O@@++++++++++++O+++++++++++OOOO+++....oOOO+++++++@@",
".ooo+++++++OOO@@+++++++++++.OO.oo++++++OO++O++++...OO$$OO+++++@@",
".ooo++++++@@O.@+++++++++++.++O++.oo+++@O++++OO++o.OO#$$$OO+++++@",
"..ooo++++++@@.@++++++++++++++OO+++++++OOo+++@OOOOOO##$$$%O+++++@",
"...oo++++++@@.@@++++++++++++++O++OOOOO+++oo+o+++OO##$$$%%%O++++@",
"...oo++++++@@.@@@@+++++++++++++OO+++o+++++@.++++oOO###$%%OO+++@@",
"..oooo+++++@@+@@+++++++@+@@@++OO@+@+++++++@.@@@ooOOOO#%OOO++++@@",
".ooooooooooo@+@+++++@@@@@@+@@@O@@@@@@@@@@@.@@@@ooO+oOOOO..+++@@@",
".....ooo.oooo+@@@@@@@@@++++@OOOO++@+@@@....+++@@@O+oooooo.++@@@+",
".................oooo...OOOOO##OOO++++...........OOooooo..++@@@+",
"@+++@@@@++@@@@.@@@@++@OOO.o@O#####O@@@@.@@@@@++@.oOoooo+o.+++@@@",
"@@+@@@@@@@@@@@.o@@@@+OO@@.ooO#$$$#OO@@@.o+++@@@@..OOoo+ooo.+++@@",
"+@@@++++@@@+@@.oo+@@OO+@+..oO#$$$$%O+@@.oo+++++@+.+OOo+ooo.+++@@",
"+++++++++@++@+.oo+++O++@++.oOOOO%%%O++@.oo+++++@..+oO+oooo..++@@",
"o+++++++++++@+.oo++OO+@@++.ooo+OOOO+++@.oo+++++@@.+oOOoooo...+@@",
"oooo+++ooo++@@.o+++O+++@@..ooooooooooo@.ooooo+oo@.++oOooooo...@@",
".oooooooooooo@.oo+OO+o+@@..oo..o..o..oo.o...oo.o..++OO+ooooo..@@",
"...oooo...ooo...oOO+oooo@..........................OO+++++ooo..@",
"OOO...OOO....OOOOOooo..oo.@@@@@@@@+@@++++@@+@++...OO......OOOOOO",
"..OOOOO..OOOOO...............++++@@@@@@+@@@@@++.@OOOOOOOOOO.....",
"oo.....+oooooOOOO..ooo....+o..+++++++++@@@+@@@++OOoo......+oo...",
"+oo+..++++++oO###O++ooo...+oo..++++++++++@+++@@OO@++++..+++++oo.",
"+++++++++++++O#$#OO+++....++oo..OO++++++@++++OOO@@@+++oo++++++oo",
"+++++++++++++O#$##O+++....++oooOOOOO+++@o+++O@@++@@@++++++++++++",
"++++++++++oo+OO$$$OO++....+ooooO%%$OOOOo++++O@++++@@++++++++++++",
"++++++++++++ooO$%%%OO+....+ooooO%%$$$#O++++O@++++@@++++++oo+++++",
"++.+++++o+++++OOOOOO++....+ooooOO$$$$#Oo++OO@@+.+@@++++++++oo+++",
"+++.+++o++++++++++++++....++ooooOO$$$#OO+OO++@@.@@++++.++++++o++",
"++++o++o+++++++++++++++...++oooooO$$###OO++++@@.@@+o+.++++++++++",
"+@@++oo+++++@++++++++++...++oooo+OO###OO++......@@++o+@@++++++++",
"@@@@@+@@@@@@@@+++@@++++...+++ooo+.OOOOO+...@@@@..@@@+@@@@@+++@@@",
"@@+@@+@@@@@@@@@@@@@@@@@@..+++++++.++++O.oo+++++@@.@@+@ @@@@@@@@@",
"++++@++++++++++@@@+++@@++.+++++++.....Oooooooo++@..@+   @@@@@@++",
"...+++++..+++++..+++++++++............OO...........++++++...++++",
"+++@@@@...@@++++@@@@@++@@@@@+++@@@@@+.@O@...@@@@+.@@@@@+++@@@@@@",
"++@@@@@..@@@@@+@@@@@@@@@@@@@@+@@@@@@@.oOO@.@@@@@+.o@@@@@@@@@@@@@",
"@@@@+@@..o++@@@@@+++@@@@@++@@@@@+++@@..oO@@@+++@+.oo++@@@@@@@@@+",
"@@@++@@.oo+++@@++++++@@@+++++++++++@@..oO+@++++@+.OOOO++@@@@++++",
"+@+++@@.ooo++++++++++++++++++++++++@@..o+O+++++@OOO%%%O+++++++++",
"+++++@@..oo++++++++++++++++++++++++@@..ooOOO++@OO##$$%O+++++++++",
"++++@@@...o+++++++++++++++++++++++@@@...o++OO@OO##$$$OO+++++++++",
"++++@@@...o+++++++++++++++++++++++@@@...oo++OOOOOOOOOO++++++++++",
"+++@@@@...oo++++++++++++++++++++++@@+.oooo++++@@@.Oooo++++++++++",
"+++@@@@..ooo+++++++++++++++++++++@@++..oo++++++@@.Oooo++++++++++"
};
