/* XPM */
static char *f128b3ad45b54102f5a99d05a191edceb815hPjnDFrdgmz7[] = {
/* columns rows colors chars-per-pixel */
"64 64 6 1 ",
"  c None",
". c #09151F",
"X c #091521",
"o c #0F2A3E",
"O c #203A4F",
"+ c #3C5D7B",
/* pixels */
"XXooooXXoooooooooo.Xooooooooooooooooo+.ooOOOOOO++..oooooo..ooooo",
"XXXooXXXXoXXXooXXXXXXoooooo.....oooooo.oooOOOOOO+..o..oo.....ooo",
"XXXXXXXXXXXXXXXXXXXXXX..................ooOOOOOO+...............",
"+++++.+++++OOO++++++++OO+++++OO++++OO+..ooOOOOOO+.+++++OOO+++++O",
"+++++.o+++++O+++++++++++++++++++++++++.oooOOOOO++.o+++++O+++++++",
"+OO++.ooOO++++OOOOOO+++++OOO++++OO++++.ooooOOO+++.ooOOO+++OOOO++",
"OOO++..oOOOO+OOOOOOOOOOOOOOOO++OOOO+++...ooOOO++O..oOOOO++OOOOO+",
"OOO++..ooOOOOOOOOOOOOOOOOOOOOOOOOOOO++..oooOOO+++..ooOOOOOOOOOOO",
"OO+++.ooooOOOOOOOOOOOOOOOOOOoOOOOOOO++.oooOOOOO++.oooOOoOOOOOOOO",
"oo+++..oooooOOOOOOoooOOOOoooooOOOooO++.ooOOOOOO++.oooooooOOOoooO",
".ooo+...ooooooooooo.ooooooo.ooooooooo+.ooOOOOOOO+..oooooooooo.oo",
"...oo.....oo..o......ooooo...oooo..ooo.ooOOOOOOO+...ooo..ooo...o",
"........................................ooOOOOOO+...............",
".+++++++++..............................ooOOOOOO+.++++OOO+++++OO",
".o+++++++++O...oooo.....................ooOOOOO++.o++++O+++++++O",
".ooO++OOO+++O..+OOooo..O...oo...........oooooOo+O.ooOO++++OO++++",
".ooOO++OOO+++.++OOOOOOOOOO.ooooOOOo....oooooooooo.ooOOO+OOOOOO++",
".ooOOOOOOOO++O++OOOOOooOOO.OOOOOOOOOOO..o..ooo.oo..ooOOOOOOOOO++",
"..oOOOOOOOO++O+OOOOOOOooOOOoOOOOOOOOOOO............ooOOOOOOOO++O",
"..ooOOOOOOO++O+OOOOOOOOOOOOOoOOOOOOOOOOOOOOOOO.......oOOOOOOO++O",
".oooOOOOOOO++O++OOOOOOOOOOOO.OOOOOOOOOOOOOOOOOO....oo.OOOOOOOO++",
".oooOOOOOOO++.++OOOOOOOOOOO..O.ooOOOOOOOOOOOOOOO......OOOOOOOO++",
".oooOOOOOO+++.+OOOOOOOOOOO.OOoOO.ooOOO+oOOOOOoOOo.o..OOOOOOOOOO+",
"..oooOOOOOO++.+OOOOOOOOOOOOOOOoOOOOOOOO+oOOO+oOOo.oo.OO.OOOOOOO+",
"...ooOOOOOO++.++OOOOOOOOOOOOOOOOOOOOooOOOooOoOOOOOoo.O...OOOOOO+",
"...ooOOOOOO++.++++OOOOOOOOOOOOOOOOOOoOOOOO+.OOOOo.Oo......OOOO++",
"..ooooOOOOO++O++OOOOOOO+O+++OOOO+O+OOOOOOO+.+++oo.Ooo.o...OOOO++",
".ooooooooooo+O+OOOOO++++++O+++++++++++++++.++++oo.Oooooo..OOO+++",
".....ooo.ooooO+++++++++OOOO+++++OO+O+++....OOO+++.Ooooooo.OO+++O",
".................oooo.......OOOOOOOOOO............Oooooo..OO+++O",
"+OOO++++OO++++.++++OO++++.o++++++++++++.+++++OO+.ooooooOo.OOO+++",
"++O+++++++++++.o++++O++++.ooO+O+O++O+++.oOOO++++..ooooOooo.OOO++",
"O+++OOOO+++O++.ooO++++O+O..oOOOOOOOOO++.ooOOOOO+O.OoooOooo.OOO++",
"OOOOOOOOO+OO+O.ooOOOOOO+OO.oOOOOOOOOOO+.ooOOOOO+..OooOoooo..OO++",
"oOOOOOOOOOOO+O.ooOOOOO++OO.oooOoooOOOO+.ooOOOOO++.Oooooooo...O++",
"ooooOOOoooOO++.oOOOOOOO++..ooooooooooo+.oooooOoo+.OOooooooo...++",
".oooooooooooo+.ooOOOOoO++..oo..o..o..oo.o...oo.o..OOOOOooooo..++",
"...oooo...ooo...oooOoooo+............................OOOOOooo..+",
"..................ooo..oo.++++++++O++OOOO++O+OO.................",
".............................OOOO++++++O+++++OO.+...............",
"oo.....Ooooooo.....ooo....Oo..OOOOOOOOO+++O+++OO++oo......Ooo...",
"OooO..OOOOOOoooo..OOooo...Ooo..OOOOOOOOOO+OOO++O++OOOO..OOOOOoo.",
"OOOOOOOOOOOOOOOOOOOOOO....OOoo...OOOOOOO+OOOO++O+++OOOooOOOOOOoo",
"OOOOOOOOOOOOOOOOOOOOOO....OOoooo.OOOOOO+oOOOO++OO+++OOOOOOOOOOOO",
"OOOOOOOOOOooOOOOOOOOOO....Oooooo.OOOOOOoOOOO++OOOO++OOOOOOOOOOOO",
"OOOOOOOOOOOOoooooOOOOO....Oooooo..Oooo.OOOOO+OOOO++OOOOOOooOOOOO",
"OO.OOOOOoOOOOOOOOOOOOO....Ooooooo..OOOOoOOOO++O.O++OOOOOOOOooOOO",
"OOO.OOOoOOOOOOOOOOOOOO....OOoooooo.OOOO.OOOOO++.++OOOO.OOOOOOoOO",
"OOOOoOOoOOOOOOOOOOOOOOO...OOoooooo..OO..OOOOO++.++OoO.OOOOOOOOOO",
"O++OOooOOOOO+OOOOOOOOOO...OOooooO..OOoOOOO......++OOoO++OOOOOOOO",
"+++++O++++++++OOO++OOOO...OOOoooO.OOOOOO...++++..+++O+++++OOO+++",
"++O++O++++++++++++++++++..OOOOOOO.OOOO..ooOOOOO++.++O+++++++++++",
"OOOO+OOOOOOOOOO+++OOO++OO.OOOOOOO......oooooooOO+..+O+++++++++OO",
"...OOOOO..OOOOO..OOOOOOOOO.........................OOOOOO...OOOO",
"OOO++++...++OOOO+++++OO+++++OOO+++++O.+++...++++O.+++++OOO++++++",
"OO+++++..+++++O++++++++++++++O+++++++.o+++.+++++O.o+++++++++++++",
"++++O++..oOO+++++OOO+++++OO+++++OOO++..oO+++OOO+O.ooOO+++++++++O",
"+++OO++.ooOOO++OOOOOO+++OOOOOOOOOOO++..oOO+OOOO+O..ooOOO++++OOOO",
"O+OOO++.oooOOOOOOOOOOOOOOOOOOOOOOOO++..oOOOOOOO++...oOOOOOOOOOOO",
"OOOOO++..ooOOOOOOOOOOOOOOOOOOOOOOOO++..ooOOOOO+++...oOOOOOOOOOOO",
"OOOO+++...oOOOOOOOOOOOOOOOOOOOOOOO+++...oOOOO++OO..ooOOOOOOOOOOO",
"OOOO+++...oOOOOOOOOOOOOOOOOOOOOOOO+++...ooOOO+++O.ooooOOOOOOOOOO",
"OOO++++...ooOOOOOOOOOOOOOOOOOOOOOO++O.ooooOOOO+++.ooooOOOOOOOOOO",
"OOO++++..oooOOOOOOOOOOOOOOOOOOOOO++OO..ooOOOOOO++..oooOOOOOOOOOO"
};
