/* XPM */
static char *_5c10f9969cc417fe2265247c103998fGkHeOyGD22lx3fC8[] = {
/* columns rows colors chars-per-pixel */
"64 64 13 1 ",
"  c black",
". c #09151F",
"X c #091521",
"o c #0F2A3E",
"O c #292C3D",
"+ c #203A4F",
"@ c #3C5D7B",
"# c #464763",
"$ c #E98A36",
"% c #F8C43A",
"& c #696681",
"* c #9B97B8",
"= c #FDF08A",
/* pixels */
"XXooooXXoooooooooo.Xooooooooooooooooo@.oo++++++@@..oooooo..ooooo",
"XXXooXXXXoXXXooXXXXXXoooooo.....oooooo.ooo++++++@..o..oo.....ooo",
"XXXXXXXXXXXXXXXXXXXXXX..................oo++++++@...............",
"@@@@@.@@@@@+++@@@@@@@@++@@@@@++@@@@++@..oo++++++@.@@@@@+++@@@@@+",
"@@@@@.o@@@@@+@@@@@@@@@@@@@@@@@@@@@@@@@.ooo+++++@@.o@@@@@+@@@@@@@",
"@++@@.oo++@@@@++++++@@@@@+++@@@@++@@@  oooo+++@@@.oo+++@@@++++@@",
"+++@@..o++++@++++++++++++++++@@++++@ $ ..oo+++@@+..o++++@@+++++@",
"+++@@..oo+++++++++++++++++++++++  ++ $ .ooo+++@@@..oo+++++++++++",
"++@@@.oooo++++++++++++++++++o++ $ + $$ ooo+++++@@.ooo++o++++++++",
"oo@@@..ooooo++++++ooo++++ooooo $   $$$ oo++++++@@.ooooooo+++ooo+",
".ooo@...ooooooooooo.ooooooo.oo $ $$$$ .oo+++++++@..oooooooooo.oo",
"...oo.....oo..o......ooooo...o $$$%%$ .oo+++++++@...ooo..ooo...o",
"...........................    $%%%%$ ..oo++++++@...............",
".@@@@@@@@@................. $$ $%%%%$ .  o++++++@.@@@@+++@@@@@++",
".o@@@@@@@@@+...oooo......... $$ %==%$$ $ o+++++@@.o@@@@+@@@@@@@+",
".oo+@@+++@@@+..@++ooo..+...o $% %= =%$ $ oooo+o@+.oo++@@@@++@@@@",
".oo++@@+++@@@.@@++++++++++.o $%%= & =%$$ oooooooo.oo+++@++++++@@",
".oo++++++++@@+@@+++++oo+++   $%% #O# %$$   ooo.oo..oo+++++++++@@",
"..o++++++++@@+@+++++++oo++ ## % #OOO# $ ## ........oo++++++++@@+",
"..oo+++++++@@+@+++++++++++ O# $% OOO =% #O +++.......o+++++++@@+",
".ooo+++++++@@+@@+++++++++++ OO %= O =% OO +++++....oo.++++++++@@",
".ooo+++++++@@.@@+++++++++++. O   OOO   O +++++++......++++++++@@",
".ooo++++++@@@.@+++++++++++.++ O#&***&#O +++++o++o.o..++++++++++@",
"..ooo++++++@@.@+++++++++++++    OOOOO    +++@o++o.oo.++.+++++++@",
"...oo++++++@@.@@+++++++++++ O##&*****&##O o+o+++++oo.+...++++++@",
"...oo++++++@@.@@@@+++++++++ OO##& # &##OO @.++++o.+o......++++@@",
"..oooo+++++@@+@@+++++++@+@@@ OO##&&&##OO +@.@@@oo.+oo.o...++++@@",
".ooooooooooo@+@+++++@@@@@@+@@           @@.@@@@oo.+ooooo..+++@@@",
".....ooo.oooo+@@@@@@@@@++++@@@@@ &O# @@....+++@@@.+oooooo.++@@@+",
".................oooo.......++++ O#& +............+ooooo..++@@@+",
"@+++@@@@++@@@@.@@@@++@@@@.o@@@@@ #OO @@.@@@@@++@.oooooo+o.+++@@@",
"@@+@@@@@@@@@@@.o@@@@+@@@@.oo+@+ #&&&# @.o+++@@@@..oooo+ooo.+++@@",
"+@@@++++@@@+@@.oo+@@@@+@+..o+++ O&&&O @.oo+++++@+.+ooo+ooo.+++@@",
"+++++++++@++@+.oo++++++@++.o++++ O#O +@.oo+++++@..+oo+oooo..++@@",
"o+++++++++++@+.oo+++++@@++.ooo+oo   ++@.oo+++++@@.+ooooooo...+@@",
"oooo+++ooo++@@.o+++++++@@..ooooooooooo@.ooooo+oo@.++ooooooo...@@",
".oooooooooooo@.oo++++o+@@..oo..o..o..oo.o...oo.o..+++++ooooo..@@",
"...oooo...ooo...ooo+oooo@............................+++++ooo..@",
"..................ooo..oo.@@@@@@@@+@@++++@@+@++.................",
".............................++++@@@@@@+@@@@@++.@...............",
"oo.....+oooooo.....ooo....+o..+++++++++@@@+@@@++@@oo......+oo...",
"+oo+..++++++oooo..++ooo...+oo..++++++++++@+++@@+@@++++..+++++oo.",
"++++++++++++++++++++++....++oo...+++++++@++++@@+@@@+++oo++++++oo",
"++++++++++++++++++++++....++oooo.++++++@o++++@@++@@@++++++++++++",
"++++++++++oo++++++++++....+ooooo.++++++o++++@@++++@@++++++++++++",
"++++++++++++ooooo+++++....+ooooo..+ooo.+++++@++++@@++++++oo+++++",
"++.+++++o+++++++++++++....+oooooo..++++o++++@@+.+@@++++++++oo+++",
"+++.+++o++++++++++++++....++oooooo.++++.+++++@@.@@++++.++++++o++",
"++++o++o+++++++++++++++...++oooooo..++..+++++@@.@@+o+.++++++++++",
"+@@++oo+++++@++++++++++...++oooo+..++o++++......@@++o+@@++++++++",
"@@@@@+@@@@@@@@+++@@++++...+++ooo+.++++++...@@@@..@@@+@@@@@+++@@@",
"@@+@@+@@@@@@@@@@@@@@@@@@..+++++++.++++..oo+++++@@.@@+@+@@@@@@@@@",
"++++@++++++++++@@@+++@@++.+++++++......ooooooo++@..@++++@@@@@@++",
"...+++++..+++++..+++++++++.........................++++++...++++",
"+++@@@@...@@++++@@@@@++@@@@@+++@@@@@+.@@@...@@@@+.@@@@@+++@@@@@@",
"++@@@@@..@@@@@+@@@@@@@@@@@@@@+@@@@@@@.o@@@.@@@@@+.o@@@@@@@@@@@@@",
"@@@@+@@..o++@@@@@+++@@@@@++@@@@@+++@@..o+@@@+++@+.oo++@@@@@@@@@+",
"@@@++@@.oo+++@@++++++@@@+++++++++++@@..o++@++++@+..oo+++@@@@++++",
"+@+++@@.ooo++++++++++++++++++++++++@@..o+++++++@@...o+++++++++++",
"+++++@@..oo++++++++++++++++++++++++@@..oo+++++@@@...o+++++++++++",
"++++@@@...o+++++++++++++++++++++++@@@...o++++@@++..oo+++++++++++",
"++++@@@...o+++++++++++++++++++++++@@@...oo+++@@@+.oooo++++++++++",
"+++@@@@...oo++++++++++++++++++++++@@+.oooo++++@@@.oooo++++++++++",
"+++@@@@..ooo+++++++++++++++++++++@@++..oo++++++@@..ooo++++++++++"
};
