/* XPM */
static char *_a4524928b0745eca41c47b15dd9f5b2[] = {
/* columns rows colors chars-per-pixel */
"32 32 119 2 ",
"   c #3B213D",
".  c #3E253F",
"X  c #3F2640",
"o  c #412A41",
"O  c #442A43",
"+  c #432E44",
"@  c #442C44",
"#  c #473046",
"$  c #473648",
"%  c #483748",
"&  c #4A384A",
"*  c #4B3E4C",
"=  c #4C3D4D",
"-  c #553F4E",
";  c #4F434F",
":  c #514551",
">  c #584151",
",  c #544954",
"<  c #574E57",
"1  c #5A5259",
"2  c #5C555C",
"3  c #5F595F",
"4  c #6A4D57",
"5  c #6C4C56",
"6  c #6D555D",
"7  c #605A5F",
"8  c #74575E",
"9  c #6F5660",
"0  c #605A60",
"q  c #725A63",
"w  c #7A5960",
"e  c #7E5B60",
"r  c #646363",
"t  c #676366",
"y  c #6A6769",
"u  c #6A6969",
"i  c #6C696B",
"p  c #6D6B6C",
"a  c #6F6D6E",
"s  c #736065",
"d  c #71696C",
"f  c #706F6F",
"g  c #7F686C",
"h  c #70706F",
"j  c #7A6E70",
"k  c #717070",
"l  c #81666B",
"z  c #856A6F",
"x  c #8B686B",
"c  c #806C71",
"v  c #876E71",
"b  c #986F71",
"n  c #877276",
"m  c #8E7376",
"M  c #8E7A7B",
"N  c #937677",
"B  c #9D7576",
"V  c #917679",
"C  c #987678",
"Z  c #917C7C",
"A  c #9B7A7A",
"S  c #987B7E",
"D  c #9A7D7D",
"F  c #A17777",
"G  c #A47A7A",
"H  c #AA817F",
"J  c #A28483",
"K  c #A08484",
"L  c #A48685",
"P  c #AA8280",
"I  c #AB8482",
"U  c #A58B89",
"Y  c #A38C8B",
"T  c #A68F8D",
"R  c #A98988",
"E  c #AE8E8B",
"W  c #AB8D8C",
"Q  c #AE8E8C",
"!  c #B38E8B",
"~  c #B1908E",
"^  c #B39391",
"/  c #B49391",
"(  c #B99591",
")  c #B49996",
"_  c #BD9D9A",
"`  c #BFA8A2",
"'  c #C29E9A",
"]  c #C2A19B",
"[  c #C3A29D",
"{  c #C4A19C",
"}  c #C5A59E",
"|  c #CAA7A2",
" . c #CBA8A3",
".. c #CCA8A2",
"X. c #CEAAA4",
"o. c #CDACA6",
"O. c #D1AFA9",
"+. c #CFB0AA",
"@. c #CEB6AE",
"#. c #D3B3AB",
"$. c #D4B3AB",
"%. c #D2B3AD",
"&. c #D4B3AC",
"*. c #D2B6AE",
"=. c #D7B6AE",
"-. c #D6BBB3",
";. c #DABBB2",
":. c #DBBCB4",
">. c #DCBFB6",
",. c #DAC0B6",
"<. c #DBC1B8",
"1. c #E1C3BA",
"2. c #E1C4BB",
"3. c #E3C7BD",
"4. c #E6CAC0",
"5. c #E9CEC3",
"6. c #EACFC4",
"7. c #EBD0C5",
"8. c #ECD1C6",
/* pixels */
"f f f f f f f f f f f f f f f f f f f f f f f f f f f f f f f u ",
"f f f f f f f f f f f f f f f f f f f f f f f f f f f f f f f u ",
"f f f f f f f f f f f f f f f f f f f f f f f f f f f f f f f u ",
"f f f f f f f f f f f f f f f f f f f f f f f f f f f f f f f u ",
"f f f f f f f f f f f f f f f f f f f f f f f f f f f f f f f u ",
"f f f f f f f f f f f p y y y y y y y y a f f f f f f f f f f u ",
"f f f f f f f f f f f 1 X             X 0 f f f f f f f f f f u ",
"f f f f f f f f f f & w B ,.<.<.<.<.-.b 4 , f f f f f f f f f u ",
"f f f f f f f f i 2 m E } 6.7.7.7.7.5.[ L v 2 a f f f f f f f u ",
"f f f f f f f f t   { :.7.7.7.7.7.7.7.7.=./ o p f f f f f f f u ",
"f f f f f f f f t   { :.7.7.7.7.7.7.7.7.=./ o p f f f f f f f u ",
"f f f f f f f f t   { :.7.7.7.7.7.7.7.7.=./ o p f f f f f f f u ",
"f f f f f f f f t   { ;.5.7.7.7.7.7.6.4.&./ o p f f f f f f f u ",
"f f f f f f f f t   { ..X.5.7.7.7.7.3.| ../ o p f f f f f f f u ",
"f f f f f f f f p 3 z ~ ..=.=.=.=.=.$...K g 0 a f f f f f f f u ",
"f f f f f f f f f h + D { ............{ l : f f f f f f f f f u ",
"f f f f f f f f f h + e G ..........| F 5 ; f f f f f f f f f u ",
"f f f f f f f f t * @.+.' P H H H H I ] *.` : p f f f f f f f u ",
"f f f f f f f t j M ,.;.| ' ' ' ' ' ]  .>.@.c d y f f f f f f u ",
"f f f f f f k & Y 8.o. .X.6.7.7.7.7.5. . .=.8.n : f f f f f f u ",
"f f f f f y $ R [ =.m ) 1.#.$.$.$.$.=.2.U K =._ S = f f f f f u ",
"f f f f f y : J E Q > T 5.=.=.=.=.=.=.6.Z 9 W W V : f f f f f u ",
"f f f f f f f % o X # Y 7.7.8.8.8.8.7.7.Z @ X o ; f f f f f f u ",
"f f f f f f f a 3 X %.#.O.! N s s A ( O.%.) X y a f f f f f f u ",
"f f f f f f f f 7 @ |  .| x 6 < < 8 C  . .^ X u f f f f f f f u ",
"f f f f f f f f 7 O  .X.| - 2 f f , q X.X./ . u f f f f f f f u ",
"f f f f f f f f f a k k k f f f f f f k k k a f f f f f f f f u ",
"f f f f f f f f f f f f f f f f f f f f f f f f f f f f f f f u ",
"f f f f f f f f f f f f f f f f f f f f f f f f f f f f f f f u ",
"f f f f f f f f f f f f f f f f f f f f f f f f f f f f f f f u ",
"f f f f f f f f f f f f f f f f f f f f f f f f f f f f f f f u ",
"u u u u u u u u u u u u u u u u u u u u u u u u u u u u u u u r "
};
