/* XPM */
static char *_bfb046f186c46acd9b1b0f4abf33253IB4FzXuIaBT03jDU[] = {
/* columns rows colors chars-per-pixel */
"32 32 116 2 ",
"   c black",
".  c #3F2740",
"X  c #412941",
"o  c #422D43",
"O  c #442F45",
"+  c #483046",
"@  c #4C3549",
"#  c #4B3A4B",
"$  c #4D3F4D",
"%  c #4E414F",
"&  c #504350",
"*  c #524652",
"=  c #594351",
"-  c #534853",
";  c #554A55",
":  c #574E57",
">  c #5A525A",
",  c #5D555C",
"<  c #5F585E",
"1  c #6A4D57",
"2  c #6C4C56",
"3  c #6D555D",
"4  c #605A5F",
"5  c #74575E",
"6  c #7A595F",
"7  c #615B60",
"8  c #745B64",
"9  c #7F5B61",
"0  c #646363",
"q  c #676366",
"w  c #6A6769",
"e  c #6A6969",
"r  c #6C696B",
"t  c #6D6B6C",
"y  c #6F6E6E",
"u  c #756267",
"i  c #71696C",
"p  c #706F6F",
"a  c #7F686C",
"s  c #7A6E70",
"d  c #737171",
"f  c #81656B",
"g  c #856A6F",
"h  c #8C696C",
"j  c #826E72",
"k  c #876E72",
"l  c #887377",
"z  c #8E7376",
"x  c #997072",
"c  c #9D7677",
"v  c #917779",
"b  c #947778",
"n  c #997778",
"m  c #977B7E",
"M  c #907C7C",
"N  c #947F7F",
"B  c #9C7C7B",
"V  c #9A7C7C",
"C  c #A27878",
"Z  c #A57C7B",
"A  c #9F8384",
"S  c #A28483",
"D  c #A38484",
"F  c #A48685",
"G  c #AB8281",
"H  c #AC8583",
"J  c #A48B89",
"K  c #A38D8B",
"L  c #A38C8C",
"P  c #A58F8D",
"I  c #A88988",
"U  c #AE8E8B",
"Y  c #AE8E8C",
"T  c #B48F8C",
"R  c #B1908E",
"E  c #B39391",
"W  c #B49390",
"Q  c #BA9692",
"!  c #B49996",
"~  c #BD9D9A",
"^  c #BFA8A2",
"/  c #C29E99",
"(  c #C2A19B",
")  c #C3A19C",
"_  c #C6A39D",
"`  c #C6A69F",
"'  c #C9A59F",
"]  c #C9A6A2",
"[  c #CBA8A3",
"{  c #CCA8A2",
"}  c #CEABA6",
"|  c #CFACA5",
" . c #CFAFA9",
".. c #D1AFA9",
"X. c #CFB1AB",
"o. c #CDB5AD",
"O. c #D3B3AB",
"+. c #D4B3AB",
"@. c #D4B4AB",
"#. c #D2B3AC",
"$. c #D2B5AE",
"%. c #D7B6AE",
"&. c #D4B9B1",
"*. c #DABBB2",
"=. c #DBBCB3",
"-. c #D8BEB5",
";. c #DCBFB6",
":. c #DAC0B7",
">. c #E1C3BA",
",. c #E1C4BB",
"<. c #E3C7BD",
"1. c #E6CAC0",
"2. c #E7CCC1",
"3. c #EACEC3",
"4. c #EACFC4",
"5. c #EBD0C5",
/* pixels */
"p p p p p p p p p p p p p p p p p p p p p p p p p p p p p p p e ",
"p p p p p p p p p p p p p p p p p p p p p p p p p p p p p p p e ",
"p p p p p p p p p p p p p p p p p p p p p p p p p p p p p p p e ",
"p p p p p p p p p p p p p p p p p p p p p p p p p p p p p p p e ",
"p p p p       p p p p       p p p p       p p p p       p p p e ",
"p p p p       p p p p t w w w w w w w w   p p p p       p p p e ",
"p p p p       p p p y > X . . . . . . X 7 y p p p       p p p e ",
"p p p p p p p p p p # 6 c -.:.:.:.:.&.x 1 ; p p p p p p p p p e ",
"p p p p p p p p r , z U ` 3.5.5.5.5.2._ F k , y p p p p p p p e ",
"p p p p p p p p q . ) =.5.5.5.5.5.5.5.5.%.W X r p p p p p p p e ",
"p p p p p p p p q . ) =.5.5.5.5.5.5.5.5.%.W X r p p p p p p p e ",
"p p p p       p q . ) =.5.5.5.5.5.5.5.5.%.W X r p       p p p e ",
"p p p p       p q . ) *.3.5.5.5.5.5.4.1.+.W X r p       p p p e ",
"p p p p       p q . ) { | 3.5.5.5.5.<.{ { W X r p       p p p e ",
"p p p p p p p p t 4 g R { %.%.%.%.%.+.{ D a 7 y p p p p p p p e ",
"p p p p p p p p p p O V _ { { { { { [ _ f & p p p p p p p p p e ",
"p p p p p p p p p p O 9 Z { { { { { ' C 2 & p p p p p p p p p e ",
"p p p p p p p p q % o.X./ G G G G G H / $.^ * t p p p p p p p e ",
"p p p p       q s M -.*.] / / / / / ( [ ;.o.j i w       p p p e ",
"p p p p       # K 5.| [ } 4.5.5.5.5.3.} [ %.5.l -       p p p e ",
"p p p p   w # I ) %.z ! >.O.@.@.@.@.%.,.J A %.~ m $     p p p e ",
"p p p p p w * S U Y = P 3.%.%.%.%.%.%.4.M 3 Y Y v * y p p p p e ",
"p p p p p p y # X . @ L 5.5.5.5.5.5.5.5.N + . o % p p p p p p e ",
"p p p p p p p y < X X. ...T b u u B Q ..#.! X w y p p p p p p e ",
"p p p p p p p p 4 + ] [ ] h 3 : : 5 n [ [ E X e p p p p p p p e ",
"p p p p       p 4 + ] [ ] = , p p ; 8 [ [ E X e p       p p p e ",
"p p p p       p p y d       p p p y       d y p p       p p p e ",
"p p p p       p p p p       p p p p       p p p p       p p p e ",
"p p p p p p p p p p p p p p p p p p p p p p p p p p p p p p p e ",
"p p p p p p p p p p p p p p p p p p p p p p p p p p p p p p p e ",
"p p p p p p p p p p p p p p p p p p p p p p p p p p p p p p p e ",
"e e e e e e e e e e e e e e e e e e e e e e e e e e e e e e e 0 "
};
