/* XPM */
static char *_52336fd71ea4d7cecd5c864e1265a1eM0CD2jmppUpCXoDz[] = {
/* columns rows colors chars-per-pixel */
"32 32 60 1 ",
"  c #5D5C5C",
". c #764040",
"X c #714E4E",
"o c #794F4F",
"O c #6E5A5A",
"+ c #725B5B",
"@ c #745F5F",
"# c #666565",
"$ c #6E6363",
"% c #6F6464",
"& c #6E6969",
"* c #6F6D6D",
"= c #706F6F",
"- c #900203",
"; c #9E0103",
": c #881010",
"> c #AF0002",
", c #AA0006",
"< c #B30003",
"1 c #B70103",
"2 c #B80005",
"3 c #A51014",
"4 c #822020",
"5 c #8A3637",
"6 c #823838",
"7 c #953233",
"8 c #983131",
"9 c #A22425",
"0 c #B22121",
"q c #B02324",
"w c #CE0103",
"e c #CB0105",
"r c #CF0105",
"t c #C8080D",
"y c #D20103",
"u c #D70003",
"i c #D60004",
"p c #D80000",
"a c #C21416",
"s c #DD282A",
"d c #C13D3E",
"f c #E92729",
"g c #E2282A",
"h c #EE2E30",
"j c #F73436",
"k c #FF3B3D",
"l c #824141",
"z c #874B4B",
"x c #AE4E50",
"c c #866263",
"v c #926364",
"b c #B16E6F",
"n c #E4494A",
"m c #CC6566",
"M c #FB7375",
"N c #FD7274",
"B c #F87577",
"V c #FB989A",
"C c #FE9B9D",
"Z c #FF9C9E",
/* pixels */
"===============================#",
"===============================#",
"===============================#",
"===============================#",
"===============================#",
"===============================#",
"===============================#",
"===============================#",
"===============================#",
"===============================#",
"=============vbbbbc============#",
"===========@mCZZZZVx%==========#",
"==========*qpnNMMBd<5==========#",
"==========zupfkkkka<>+=========#",
"==========9ipjkkkks<>6=========#",
"==========%3thhhhhg;4&=========#",
"===========+,rpppp1:$==========#",
"============o2pppy-O===========#",
"=============lepp>X============#",
"=============*7iw.=============#",
"==============&08*=============#",
"===============%&==============#",
"===============================#",
"===============================#",
"===============================#",
"===============================#",
"===============================#",
"===============================#",
"===============================#",
"===============================#",
"===============================#",
"############################### "
};
