/* XPM */
static char *_e3d8433e70c4f79f36abf0a51e03f0ftWv9BSkgEZCWyZtB[] = {
/* columns rows colors chars-per-pixel */
"32 32 35 1 ",
"  c #0B0E13",
". c #0C0F14",
"X c #0D1017",
"o c #0E1218",
"O c #10141B",
"+ c #12161F",
"@ c #121720",
"# c #161B26",
"$ c #171C27",
"% c #171B28",
"& c #171C29",
"* c #191F2B",
"= c #191933",
"- c #1B1A36",
"; c #1C1B38",
": c #1C1C39",
"> c #1A202E",
", c #1E2634",
"< c #212939",
"1 c #262E43",
"2 c #273044",
"3 c #293246",
"4 c #2A334A",
"5 c #2B354B",
"6 c #2C364C",
"7 c #2A3459",
"8 c #2C385D",
"9 c #2F3B60",
"0 c #323E61",
"q c #3B455A",
"w c #3C475C",
"e c #354163",
"r c #414C63",
"t c #424E65",
"y c #49566F",
/* pixels */
"rrrrrrrrrrrrrrrrrrrrrrrrrrrrrrrq",
"yyyyyyyyyyyyyyyyyyyyyyyyyyyyyyyt",
"yy000000000000000000000000000eyt",
"yy8877777777777777777777777780yt",
"yy87;----------------------:70yt",
"yy87=                      :70yt",
"yy87=                      :70yt",
"yy87=                      :70yt",
"yy87=              .33331*X:70yt",
"yy87=              .56662>o:70yt",
"yy87=              .56662>o:70yt",
"yy87=              .56662>o:70yt",
"yy87=              .56662>o:70yt",
"yy87=              .56662>o:70yt",
"yy87=      +<<<<<,$O56662>o:70yt",
"yy87=      +<<<<<,$O56662>o:70yt",
"yy87=      +<<<<<,$O56662>o:70yt",
"yy87=      +<<<<<,$O56662>o:70yt",
"yy87=      +<<<<<,$O56662>o:70yt",
"yy87-+++++o+<<<<<,$O56662>o:70yt",
"yy87-#####+@<<<<<,$O56662>o:70yt",
"yy87-#####+@<<<<<,$O56662>o:70yt",
"yy87-#####+@<<<<<,$O56662>o:70yt",
"yy87-#####+@<<<<<,$O56662>o:70yt",
"yy87-#####+@<<<<<,$O56662>o:70yt",
"yy87-#####+@<<<<<,$O56662>o:70yt",
"yy87-%%%%#@@<<<<<,&+44441>o:70yt",
"yy87;:::::::::::::::::::::::70yt",
"yy8888888888888888888888888880yt",
"yy099999999999999999999999999eyt",
"yyyyyyyyyyyyyyyyyyyyyyyyyyyyyyyt",
"tttttttttttttttttttttttttttttttw"
};
