/* XPM */
static char *a83a170e94f2437dd394f06267f33972WVvDWEIjm5vPFFCh[] = {
/* columns rows colors chars-per-pixel */
"32 32 121 2 ",
"   c #3B213D",
".  c #3C233E",
"X  c #3E253F",
"o  c #3F2640",
"O  c #412A41",
"+  c #442A43",
"@  c #432D44",
"#  c #442C44",
"$  c #473046",
"%  c #473648",
"&  c #483748",
"*  c #4A384A",
"=  c #4C3D4D",
"-  c #553F4E",
";  c #4E404E",
":  c #514551",
">  c #594251",
",  c #544954",
"<  c #574E57",
"1  c #5A5259",
"2  c #5C555C",
"3  c #5F595F",
"4  c #5D5C5C",
"5  c #6A4D57",
"6  c #614C58",
"7  c #6D555D",
"8  c #605A5F",
"9  c #605A60",
"0  c #645F64",
"q  c #705761",
"w  c #725A62",
"e  c #765960",
"r  c #7A5960",
"t  c #676366",
"y  c #666565",
"u  c #686467",
"i  c #6A6769",
"p  c #6F676A",
"a  c #6B696B",
"s  c #6C696B",
"d  c #6D6B6C",
"f  c #6E6C6D",
"g  c #706F6F",
"h  c #7F696D",
"j  c #7A6E70",
"k  c #717070",
"l  c #84696E",
"z  c #8B686B",
"x  c #896A6E",
"c  c #856C70",
"v  c #886C71",
"b  c #926E71",
"n  c #986F71",
"m  c #877376",
"M  c #8E7376",
"N  c #8E7476",
"B  c #967274",
"V  c #9D7576",
"C  c #927679",
"Z  c #977A7C",
"A  c #917C7C",
"S  c #947F7F",
"D  c #987B7E",
"F  c #9B7E7F",
"G  c #A37878",
"H  c #A47979",
"J  c #A87F7E",
"K  c #9E8181",
"L  c #A08382",
"P  c #A28483",
"I  c #A48686",
"U  c #AE8784",
"Y  c #AF8885",
"T  c #A58B89",
"R  c #A38C8B",
"E  c #A68F8D",
"W  c #A98988",
"Q  c #AB8D8C",
"!  c #AE8F8C",
"~  c #B48D8B",
"^  c #B0908E",
"/  c #AA9390",
"(  c #AB9592",
")  c #B39391",
"_  c #B49391",
"`  c #B39492",
"'  c #B49591",
"]  c #B99390",
"[  c #BA9491",
"{  c #B49996",
"}  c #BE9995",
"|  c #B29B98",
" . c #B79F9B",
".. c #BD9D99",
"X. c #C3A29D",
"o. c #C4A39D",
"O. c #C2A49F",
"+. c #C5A59E",
"@. c #CAA7A2",
"#. c #CBA8A3",
"$. c #CCA9A4",
"%. c #CFADA7",
"&. c #CFAFA9",
"*. c #CCB3AC",
"=. c #CFB6AF",
"-. c #D3B2AA",
";. c #D4B3AB",
":. c #D1B3AC",
">. c #D5B5AD",
",. c #D1B8B0",
"<. c #D4BAB2",
"1. c #DBBDB4",
"2. c #DAC0B6",
"3. c #DBC1B8",
"4. c #E0C3BA",
"5. c #E2C4BB",
"6. c #E5CABF",
"7. c #E9CDC2",
"8. c #EACFC4",
"9. c #EBD0C5",
"0. c #ECD1C6",
/* pixels */
"g g g g g g g g g g g g g g g g g g g g g g g g g g g g g g g y ",
"g g g g g g g g g g g g g g g g g g g g g g g g g g g g g g g y ",
"g g g g g g g g g g g g g g g g g g g g g g g g g g g g g g g y ",
"g g g g g g g g g g g g g g g g g g g g g g g g g g g g g g g y ",
"g g g g g g g g g g g g g g g g g g g g g g g g g g g g g g g y ",
"g g g g g g g g g g g d i i i i i i i i f g g g g g g g g g g y ",
"g g g g g g g g g g g 1 o             o 9 g g g g g g g g g g y ",
"g g g g g g g g g g * r V 2.3.3.3.3.<.n 5 , g g g g g g g g g y ",
"g g g g g g g g s 2 N ! +.8.9.9.9.9.7.X.I c 2 f g g g g g g g y ",
"g g g g g g g g t   o.1.9.9.9.9.9.9.9.9.>.' O d g g g g g g g y ",
"g g g g g g g g t   o.1.9.9.9.9.9.9.9.9.>.' O d g g g g g g g y ",
"g g g g g g g g t   o.O. . .<.9.9.,. . .X.' O d g g g g g g g y ",
"g g g g g g g g t   o.F o o | 9.9.( o o L ' O d g g g g g g g y ",
"g g g g g g g g t   o.F o o | 9.9.( o o L ' O d g g g g g g g y ",
"g g g g g g g g d 3 c C Z / =.9.9.*./ Z v h 9 f g g g g g g g y ",
"g g g g g g g g f i @ K #.7.9.9.9.9.7.#.l = i f g g g g g g g y ",
"g g g g g g g g 0 o O K @.G } #.#.[ G @.l o o a g g g g g g g y ",
"g g g g g g g g 0 . ` [ ~ %.#.] ] o.%.~ [ I o a g g g g g g g y ",
"g g g g g g g t j S @.[ H 6.-.J J %.6.H } ..m p u g g g g g g y ",
"g g g g g g k * R 0.$.@.@.7.9.8.8.9.7.#.@.>.0.m : g g g g g g y ",
"g g g g g i % W X.>.M { 4.-.;.;.;.;.>.5.T K >...D = g g g g g y ",
"g g g g g i : P ! ^ > E 7.>.>.>.>.>.>.8.A q ! Q C : g g g g g y ",
"g g g g g g g & O o $ R 9.8.8.8.8.7.8.9.A # o O ; g g g g g g y ",
"g g g g g g g f 3 o :.&.%.Y x 6 6 b U %.:.{ o i f g g g g g g y ",
"g g g g g g g g 8 # @.#.@.z 7 < < e B #.#.) o a g g g g g g g y ",
"g g g g g g g g 8 + #.$.@.- 2 g g , w $.$._ X a g g g g g g g y ",
"g g g g g g g g g f k k k g g g g g g k k k f g g g g g g g g y ",
"g g g g g g g g g g g g g g g g g g g g g g g g g g g g g g g y ",
"g g g g g g g g g g g g g g g g g g g g g g g g g g g g g g g y ",
"g g g g g g g g g g g g g g g g g g g g g g g g g g g g g g g y ",
"g g g g g g g g g g g g g g g g g g g g g g g g g g g g g g g y ",
"y y y y y y y y y y y y y y y y y y y y y y y y y y y y y y y 4 "
};
