/* XPM */
static char *_ec96f4bab294339adf8fa41fa2bdb1aY6EOjEo7z4D4PnrL[] = {
/* columns rows colors chars-per-pixel */
"32 32 114 2 ",
"   c black",
".  c #3F2740",
"X  c #412941",
"o  c #422D43",
"O  c #432E44",
"+  c #483046",
"@  c #4C3549",
"#  c #4B3A4B",
"$  c #4D3F4D",
"%  c #4F414F",
"&  c #524652",
"*  c #594351",
"=  c #534853",
"-  c #554A55",
";  c #574E57",
":  c #5A525A",
">  c #5D555C",
",  c #5F585E",
"<  c gray36",
"1  c #6A4D57",
"2  c #65505B",
"3  c #6D555D",
"4  c #605A5F",
"5  c #7A595F",
"6  c #615B60",
"7  c #645F63",
"8  c #705760",
"9  c #765960",
"0  c #745B64",
"q  c #676366",
"w  c #666565",
"e  c #686467",
"r  c #6A6769",
"t  c #6B686A",
"y  c #6C696B",
"u  c #6D6B6C",
"i  c #6F6E6E",
"p  c #70676B",
"a  c #706F6F",
"s  c #7F696D",
"d  c #7A6E70",
"f  c #737171",
"g  c #83696E",
"h  c #856B6F",
"j  c #8D6A6D",
"k  c #876C71",
"l  c #8B6C70",
"z  c #887377",
"x  c #8E7376",
"c  c #887477",
"v  c #8E7476",
"b  c #947173",
"n  c #977375",
"m  c #997072",
"M  c #9D7677",
"N  c #927679",
"B  c #977B7D",
"V  c #907C7C",
"C  c #947E7E",
"Z  c #9B7F7F",
"A  c #A47A79",
"S  c #A67C7B",
"D  c #A9817F",
"F  c #958080",
"G  c #9E8181",
"H  c #A08383",
"J  c #A28483",
"K  c #A48686",
"L  c #A48B89",
"P  c #A38C8B",
"I  c #A58F8D",
"U  c #A88988",
"Y  c #AE8F8C",
"T  c #B08A87",
"R  c #B48E8B",
"E  c #B0908E",
"W  c #AA9390",
"Q  c #AC9592",
"!  c #B29391",
"~  c #B49591",
"^  c #BA9592",
"/  c #B49996",
"(  c #BE9996",
")  c #B39B98",
"_  c #B79F9B",
"`  c #BD9D9A",
"'  c #C3A39D",
"]  c #C5A39E",
"[  c #C2A49F",
"{  c #C6A69F",
"}  c #C9A6A2",
"|  c #CBA8A3",
" . c #CCA9A4",
".. c #CBACA5",
"X. c #CFADA7",
"o. c #CFAEA9",
"O. c #CFB1AB",
"+. c #CDB4AD",
"@. c #D3B2AB",
"#. c #D4B4AB",
"$. c #D1B2AC",
"%. c #D0B6AF",
"&. c #D5B5AD",
"*. c #D2B8B1",
"=. c #D4BAB3",
"-. c #D8BEB5",
";. c #DAC0B7",
":. c #E0C3BA",
">. c #E1C4BB",
",. c #E5C9BF",
"<. c #E7CCC1",
"1. c #EACEC3",
"2. c #EACFC4",
"3. c #EBD0C5",
/* pixels */
"a a a a a a a a a a a a a a a a a a a a a a a a a a a a a a a w ",
"a a a a a a a a a a a a a a a a a a a a a a a a a a a a a a a w ",
"a a a a a a a a a a a a a a a a a a a a a a a a a a a a a a a w ",
"a a a a a a a a a a a a a a a a a a a a a a a a a a a a a a a w ",
"a a a a       a a a a       a a a a       a a a a       a a a w ",
"a a a a       a a a a u r r r r r r r r   a a a a       a a a w ",
"a a a a       a a a i : X . . . . . . X 6 i a a a       a a a w ",
"a a a a a a a a a a # 5 M -.;.;.;.;.=.m 1 - a a a a a a a a a w ",
"a a a a a a a a y > v Y { 1.3.3.3.3.<.] K k > i a a a a a a a w ",
"a a a a a a a a q . ' -.3.3.3.3.3.3.3.3.&.~ X y a a a a a a a w ",
"a a a a a a a a q . ' -.3.3.3.3.3.3.3.3.&.~ X y a a a a a a a w ",
"a a a a       a q . ' [ _ _ =.3.3.*._ _ ' ~ X y a       a a a w ",
"a a a a       a q . ' Z . . ) 3.3.Q . . H ~ X y a       a a a w ",
"a a a a       a q . ' Z . . ) 3.3.Q . . H ~ X y a       a a a w ",
"a a a a a a a a u 4 h N B W %.3.3.+.W B k s 6 i a a a a a a a w ",
"a a a a a a a a i r O G  .1.3.3.3.3.1. .g $ r i a a a a a a a w ",
"a a a a a a a a 7 . X G } A ( | | ^ A } g . X t a a a a a a a w ",
"a a a a a a a a 7 . ! ^ R ..} ^ ^ ] X.R ^ K X t a a a a a a a w ",
"a a a a       q d F } ^ S ,.@.D D X.,.S ( ` c p e       a a a w ",
"a a a a       # P 3.X.} } 1.2.1.1.2.1.| } &.3.z =       a a a w ",
"a a a a   r # U ' &.x / :.@.#.#.#.#.&.>.L G &.` B $     a a a w ",
"a a a a a r & J Y E * I 1.&.&.&.&.&.&.2.V 8 Y Y N & i a a a a w ",
"a a a a a a i # X . @ P 2.2.1.1.1.1.1.2.C + . o % a a a a a a w ",
"a a a a a a a i , X O.o.X.T l 2 2 b T X.$./ X r i a a a a a a w ",
"a a a a a a a a 4 + } | } j 3 ; ; 9 n | | ! X t a a a a a a a w ",
"a a a       a a 4 + } | } * > a a - 0 | | ! X t a       a a a w ",
"a a a       a a a i f       a a a i       f i a a       a a a w ",
"a a a       a a a a a       a a a a       a a a a       a a a w ",
"a a a a a a a a a a a a a a a a a a a a a a a a a a a a a a a w ",
"a a a a a a a a a a a a a a a a a a a a a a a a a a a a a a a w ",
"a a a a a a a a a a a a a a a a a a a a a a a a a a a a a a a w ",
"w w w w w w w w w w w w w w w w w w w w w w w w w w w w w w w < "
};
