/* XPM */
static char *_b477562f2324d19cb251ae9f8d31338nTZTnFufogZJRkFi[] = {
/* columns rows colors chars-per-pixel */
"32 32 108 2 ",
"   c black",
".  c #3F2740",
"X  c #402841",
"o  c #452D44",
"O  c #453246",
"+  c #493045",
"@  c #4A3749",
"#  c #4D3649",
"$  c #4A3A4B",
"%  c #52384A",
"&  c #553A4A",
"*  c #533D4E",
"=  c #563C4C",
"-  c #564051",
";  c #554452",
":  c #574E57",
">  c #594955",
",  c #5E4E57",
"<  c #595059",
"1  c #5D565D",
"2  c gray36",
"3  c #674C57",
"4  c #604A58",
"5  c #684E58",
"6  c #65505B",
"7  c #69515A",
"8  c #6A525D",
"9  c #6C535D",
"0  c #605A5F",
"q  c #635E62",
"w  c #6F5A62",
"e  c #6A5F63",
"r  c #725961",
"t  c #715D63",
"y  c #7C5960",
"u  c #656064",
"i  c #666565",
"p  c #6A6769",
"a  c #6B696B",
"s  c #6C6A6B",
"d  c #6D6B6C",
"f  c #6F6D6E",
"g  c #716166",
"h  c #736368",
"j  c #746368",
"k  c #7A656B",
"l  c #706F6F",
"z  c #7D696D",
"x  c #757372",
"c  c #815D63",
"v  c #81666C",
"b  c #926B6D",
"n  c #966D6F",
"m  c #8A6F72",
"M  c #926E71",
"N  c #8C7074",
"B  c #957879",
"V  c #937D7E",
"C  c #A07575",
"Z  c #A27877",
"A  c #A47C7B",
"S  c #A27D7D",
"D  c #A7807F",
"F  c #9C8686",
"G  c #AC8C8B",
"H  c #B28B88",
"J  c #B38E8A",
"K  c #B48E8B",
"L  c #B1908E",
"P  c #B6918D",
"I  c #AC9692",
"U  c #AF9895",
"Y  c #B89490",
"T  c #B19A96",
"R  c #BF9D99",
"E  c #BBA09C",
"W  c #BCA49F",
"Q  c #BDA5A0",
"!  c #C19F9A",
"~  c #C6A29E",
"^  c #C6A49E",
"/  c #C9A59F",
"(  c #CAA6A1",
")  c #C0A8A2",
"_  c #C2A9A4",
"`  c #C4ACA6",
"'  c #CCA8A2",
"]  c #CEABA4",
"[  c #CEB0A9",
"{  c #CEB5AE",
"}  c #D0B1AA",
"|  c #D0B3AC",
" . c #D7B6AE",
".. c #D4B8B0",
"X. c #DABAB2",
"o. c #DBBCB3",
"O. c #DAC0B7",
"+. c #DEC0B7",
"@. c #DCC2B9",
"#. c #E0C3B9",
"$. c #E2C4BB",
"%. c #E0C5BC",
"&. c #E6C9BF",
"*. c #E7CBC1",
"=. c #E7CCC1",
"-. c #EACEC3",
";. c #EBCFC5",
":. c #EBD0C5",
/* pixels */
"l l l l l l l l l l l l l l l l l l l l l l l l l l l l l l l i ",
"l l l l l l l l l l l l l l l l l l l l l l l l l l l l l l l i ",
"l l l l l l l l l l l l l l l l l l l l l l l l l l l l l l l i ",
"l l l l l l l l l l l l l l l l l l l l l l l l l l l l l l l i ",
"l l l l       l l l l       l l l l       l l l l       l l l i ",
"l l l l       l l l f p p p p p p p p p p l l l l       l l l i ",
"l l l l       l l l p X X . . . X X X X X d l l l       l l l i ",
"l l l l l l l l l 1 w R ..O.O.O.| R R R R ; q l l l l l l l l i ",
"l l l l l l l l l : 8 o.*.:.:.:.%. .' ' ' m h u l l l l l l l i ",
"l l l l l l l l l : 4 :.:.:.:.:.:.;.] ' ' ' B $ l l l l l l l i ",
"l l l l l l l l l : 4 :.:.:.:.:.:.;.] ' ' ' B $ l l l l l l l i ",
"l l l l       l l : * I @.:.:.Q T T ( ' ' ' B $ l       l l l i ",
"l l l l       l l : o . { :.:.k . # ~ ' ' ' B $ l       l l l i ",
"l l l l       l l : o . { :.:.k . # ~ ' ' ' B $ l       l l l i ",
"l l l l l l l l l : - W %.:.:.Q I G ( ' ' N j q l l l l l l l i ",
"l l l l l l l l l : 4 -.;.-.*.;.+./ ' ' ' > q l l l l l l l l i ",
"l l l l l l l l l : r ' #. .C &.} C = . . d l l l l l l l l l i ",
"l l l l l l l l l : 5 K Y J Z Y ! } ) F . s l l l l l l l l l i ",
"l l l l       l l : 3 H K P P P ^ $.$.E . d l l l       l l l i ",
"l l l l       l l : r ' #.:.:.:.@.' ' L . d l l l       l l l i ",
"l l l l       f $ y D &. .] ] ]  .=.=.&.@.@ 0 l l       l l l i ",
"l l l l l l l f O c A ` [  . . .X.#._ [ #.v g u l l l l l l l i ",
"l l l l l l l f O c n . Q -.-.-.%.' 9 B ' ' B $ l l l l l l l i ",
"l l l l l l l l a , & . M S 6 6 F -.t = 7 7 e s l l l l l l l i ",
"l l l l l l l l l : + y n n . . V :.T z . < u l l l l l l l l i ",
"l l l l       l l : % C C b . . V :.:.U . l l l l       l l l i ",
"l l l l       l l f f       l f l x       l l l l       l l l i ",
"l l l l       l l l l       l l l l       l l l l       l l l i ",
"l l l l l l l l l l l l l l l l l l l l l l l l l l l l l l l i ",
"l l l l l l l l l l l l l l l l l l l l l l l l l l l l l l l i ",
"l l l l l l l l l l l l l l l l l l l l l l l l l l l l l l l i ",
"i i i i i i i i i i i i i i i i i i i i i i i i i i i i i i i 2 "
};
