/* XPM */
static char *f205e9c87b2c45b6b8611a3f398f95d5EgKexcft87LHphda[] = {
/* columns rows colors chars-per-pixel */
"32 32 106 2 ",
"   c #381D3B",
".  c #3B213D",
"X  c #3C223E",
"o  c #3D253F",
"O  c #3F2640",
"+  c #452D44",
"@  c #443045",
"#  c #493045",
"$  c #483448",
"%  c #49384A",
"&  c #51374A",
"*  c #54394A",
"=  c #533C4E",
"-  c #543D4D",
";  c #564051",
":  c #574E57",
">  c #584855",
",  c #5E4E57",
"<  c #595059",
"1  c #5D565D",
"2  c #5D5C5C",
"3  c #604A58",
"4  c #614C58",
"5  c #674D58",
"6  c #684E58",
"7  c #6A525D",
"8  c #605A5F",
"9  c #635E62",
"0  c #645F64",
"q  c #6F5A62",
"w  c #6A5E63",
"e  c #715961",
"r  c #7C5960",
"t  c #656064",
"y  c #666565",
"u  c #6A6769",
"i  c #6C696B",
"p  c #6D6A6C",
"a  c #6F6D6E",
"s  c #716166",
"d  c #746368",
"f  c #7A656B",
"g  c #706F6F",
"h  c #7D696D",
"j  c #70706F",
"k  c #737171",
"l  c #815D63",
"z  c #81666C",
"x  c #936B6E",
"c  c #966D6F",
"v  c #896E72",
"b  c #916D70",
"n  c #8C7074",
"m  c #9E7373",
"M  c #957879",
"N  c #937E7F",
"B  c #947E7F",
"V  c #A17575",
"C  c #A47C7B",
"Z  c #A17C7C",
"A  c #9C8686",
"S  c #A78180",
"D  c #AB8C8A",
"F  c #B18A87",
"G  c #B38D8A",
"H  c #B48D8A",
"J  c #B0908E",
"K  c #B5908C",
"L  c #AC9692",
"P  c #B89390",
"I  c #B89490",
"U  c #B09995",
"Y  c #BBA19C",
"T  c #BCA49F",
"R  c #BDA5A0",
"E  c #C09E9A",
"W  c #C5A39E",
"Q  c #C7A49F",
"!  c #CAA6A1",
"~  c #CCA7A1",
"^  c #C0A8A2",
"/  c #C4ABA6",
"(  c #CCA8A2",
")  c #CDAAA4",
"_  c #CEB0A9",
"`  c #CEB5AE",
"'  c #D0B1A9",
"]  c #D2B4AC",
"[  c #D7B6AE",
"{  c #D4B9B1",
"}  c #DABAB2",
"|  c #DBBCB3",
" . c #DEC0B7",
".. c #DBC1B8",
"X. c #DCC2B9",
"o. c #E1C3B9",
"O. c #E2C4BB",
"+. c #E0C5BC",
"@. c #E4C7BD",
"#. c #E5C9BE",
"$. c #E7CBC1",
"%. c #E7CCC2",
"&. c #EACEC3",
"*. c #EACEC4",
"=. c #EBD0C5",
"-. c #ECD1C5",
/* pixels */
"g g g g g g g g g g g g g g g g g g g g g g g g g g g g g g g y ",
"g g g g g g g g g g g g g g g g g g g g g g g g g g g g g g g y ",
"g g g g g g g g g g g g g g g g g g g g g g g g g g g g g g g y ",
"g g g g g g g g g g g g g g g g g g g g g g g g g g g g g g g y ",
"g g g g g g g g g g g g g g g g g g g g g g g g g g g g g g g y ",
"g g g g g g g g g g a u u u u u u u u u u g g g g g g g g g g y ",
"g g g g g g g g g g u O X . . . X O O O O p g g g g g g g g g y ",
"g g g g g g g g g 1 q E { ......] E E E E ; 9 g g g g g g g g y ",
"g g g g g g g g g : 7 | $.=.=.=.O.[ ( ( ( v s 0 g g g g g g g y ",
"g g g g g g g g g : 3 -.=.=.=.=.=.*.) ( ( ( M % j g g g g g g y ",
"g g g g g g g g g : 3 -.=.=.=.=.=.*.) ( ( ( M % j g g g g g g y ",
"g g g g g g g g g : = L X.=.=.R U U ! ( ( ( M % j g g g g g g y ",
"g g g g g g g g g : + o ` =.-.f O # Q ( ( ( M % j g g g g g g y ",
"g g g g g g g g g : + o ` =.-.f O # Q ( ( ( M % j g g g g g g y ",
"g g g g g g g g g : ; T +.=.=.R L D ! ( ( n d 9 g g g g g g g y ",
"g g g g g g g g g : 3 *.*.*.$.=. .! ( ( ( > 9 g g g g g g g g y ",
"g g g g g g g g g : e ( o.[ m #.' V * o o p g g g g g g g g g y ",
"g g g g g g g g g : 6 H P G V I E ] ^ A o p g g g g g g g g g y ",
"g g g g g g g g g : 5 F H K K K W O.O.Y o p g g g g g g g g g y ",
"g g g g g g g g j : e ( o.-.-.-.X.~ ~ J   p g g g g g g g g g y ",
"g g g g g g g a % r S $.[ ) ) ) [ %.%.#.X.$ 8 g g g g g g g g y ",
"g g g g g g g a + l C / _ [ [ [ } o.^ _ o.z s t g g g g g g g y ",
"g g g g g g g a @ l c o R *.*.*.@.( 7 M ( ( M % j g g g g g g y ",
"g g g g g g g g i , * O b Z 3 4 A &.q - 5 5 w i g g g g g g g y ",
"g g g g g g g g g : # r c c o O N -.U h O < t g g g g g g g g y ",
"g g g g g g g g g : & V V x X o B -.-.U X g g g g g g g g g g y ",
"g g g g g g g g g g g g g g a a g k k k a g g g g g g g g g g y ",
"g g g g g g g g g g g g g g g g g g g g g g g g g g g g g g g y ",
"g g g g g g g g g g g g g g g g g g g g g g g g g g g g g g g y ",
"g g g g g g g g g g g g g g g g g g g g g g g g g g g g g g g y ",
"g g g g g g g g g g g g g g g g g g g g g g g g g g g g g g g y ",
"y y y y y y y y y y y y y y y y y y y y y y y y y y y y y y y 2 "
};
