/* XPM */
static char *aa21f9926ccc4b0084723504591e45d6S0rdTTy2mZ6qIzCD[] = {
/* columns rows colors chars-per-pixel */
"32 32 76 1 ",
"  c black",
". c #3F2740",
"X c #422A42",
"o c #452D44",
"O c #4D3649",
"+ c #4A3A4B",
"@ c #553A4A",
"# c #533D4E",
"$ c #553E4D",
"% c #564051",
"& c #554452",
"* c #574E57",
"= c #5E4E57",
"- c #5D565D",
"; c #614B59",
": c #684E58",
"> c #65505B",
", c #69515A",
"< c #6A525D",
"1 c #6C535D",
"2 c #6F5A62",
"3 c #725961",
"4 c #715D63",
"5 c #7C5960",
"6 c #6A6769",
"7 c #736368",
"8 c #7A656B",
"9 c #706F6F",
"0 c #7D696D",
"q c #ED1C24",
"w c #966D6F",
"e c #8A6F72",
"r c #926E71",
"t c #957879",
"y c #937D7E",
"u c #A07575",
"i c #A27877",
"p c #A47C7B",
"a c #A27D7D",
"s c #A7807F",
"d c #9E8787",
"f c #AC8C8B",
"g c #B28B88",
"h c #B1908E",
"j c #AC9692",
"k c #AF9895",
"l c #B89490",
"z c #B19A96",
"x c #BF9D99",
"c c #BBA09C",
"v c #BFA6A1",
"b c #C19F9A",
"n c #C6A29E",
"m c #C6A49E",
"M c #C9A59F",
"N c #CAA7A1",
"B c #C0A8A2",
"V c #C2A9A4",
"C c #C4ACA6",
"Z c #CCA8A2",
"A c #CEABA4",
"S c #CEB0A9",
"D c #CEB5AE",
"F c #D2B3AB",
"G c #D0B3AC",
"H c #D5B4AD",
"J c #D4B8B0",
"K c #DAC0B7",
"L c #DCC2B9",
"P c #E0C3B9",
"I c #E2C4BB",
"U c #E3C6BD",
"Y c #E4C8BE",
"T c #E8CDC3",
"R c #EBD0C5",
"E c white",
/* pixels */
"99999999999999999999999999999999",
"99999E999999E999999E999999E99999",
"99999E999999E999999E999999E99999",
"999EEE9999EEE9999EEE9999EEE99999",
"999EEE9999EEE9999EEE9999EEE99999",
"999   9999   9999   9999   99999",
"99999999999999999999999999999999",
"9999999996oo+9999999999999999999",
"99999E9**=555q*****q*****-q99999",
"99999E9@o@wpsq::3;%qo#;;<2q99999",
"999EEE9u5..CPZggZRjq.jRRJxX69999",
"999EEEqurrvSHPglPRLDDLRRKJX69999",
"999   qrraTHARggHRRRRRRRRKX69999",
"99999qq..>THARgiuRRRRRRRRKX69999",
"9999qqq..>THARggYRv88vRRRKX69999",
"9999qEqyydUSHqmbFLzq.zRRKGq69999",
"9999qEqTTTZPPqIFuMfqOzRRJxq69999",
"999EEEqTz41VPZIB$ZNnnNZZZxX69999",
"999EEEqk0$tSPhcd.ZZZZZZZZxX69999",
"999   9..,ZPP....ZZZZZZZZxX69999",
"9999999q-,Ze+qqqq&eZZZZZe&699999",
"99999999q7t7-qqqq-7ttttt7-999999",
"99999E9996+-Eqqqqq-+++++-9E99999",
"99999E999999E99qqqqEqq9999E99999",
"999EEE9999EEE9999EEE9999EEE99999",
"999EEE9999EEE9999EEE9999EEE99999",
"999   9999   9999   9999   99999",
"99999999999999999999999999999999",
"99999999999999999999999999999999",
"99999999999999999999999999999999",
"99999999999999999999999999999999",
"99999999999999999999999999999999"
};
