/* XPM */
static char *cdfa0b9c977b404ddc8b931da394a84dgEg5Y3dApla3CAb6[] = {
/* columns rows colors chars-per-pixel */
"32 32 103 2 ",
"   c black",
".  c #3F2740",
"X  c #422A42",
"o  c #442D43",
"O  c #453145",
"+  c #4A3146",
"@  c #4E3749",
"#  c #4A3A4A",
"$  c #593D4C",
"%  c #4F414F",
"&  c #554452",
"*  c #544A55",
"=  c #5A515A",
"-  c #5D565D",
";  c gray36",
":  c #684A56",
">  c #624E5B",
",  c #65505B",
"<  c #66515C",
"1  c #69515A",
"2  c #63585E",
"3  c #74555D",
"4  c #78565D",
"5  c #635E63",
"6  c #645F63",
"7  c #685A60",
"8  c #6D5961",
"9  c #725F64",
"0  c #666565",
"q  c #686467",
"w  c #6A6769",
"e  c #6B696B",
"r  c #6C696B",
"t  c #6D6B6C",
"y  c #6F6D6E",
"u  c #766368",
"i  c #7A656B",
"p  c #706F6F",
"a  c #757372",
"s  c #836267",
"d  c #80656B",
"f  c #90696C",
"g  c #986F70",
"h  c #877175",
"j  c #8D7173",
"k  c #8C7175",
"l  c #8C7678",
"z  c #9C7373",
"x  c #9C7474",
"c  c #95797B",
"v  c #977A7C",
"b  c #A07575",
"n  c #A27877",
"m  c #A47E7D",
"M  c #9B8585",
"N  c #A08282",
"B  c #A48D8C",
"V  c #AA8B89",
"C  c #B28B88",
"Z  c #B38D8A",
"A  c #B48E8B",
"S  c #B48F8C",
"D  c #A7908E",
"F  c #B6918D",
"G  c #AC9692",
"H  c #B09794",
"J  c #B09996",
"K  c #BB9A96",
"L  c #BC9A96",
"P  c #BE9C97",
"I  c #BF9D99",
"U  c #B9A19D",
"Y  c #BCA49F",
"T  c #C09D98",
"R  c #C6A39E",
"E  c #C9A59F",
"W  c #C8A6A1",
"Q  c #C0A8A2",
"!  c #C4AAA4",
"~  c #C6ADA7",
"^  c #CCA8A2",
"/  c #CEABA4",
"(  c #C8ADA7",
")  c #CAAFA9",
"_  c #CAB1AA",
"`  c #D3B1AA",
"'  c #D3B7AF",
"]  c #D5B4AD",
"[  c #D5BCB3",
"{  c #D9BAB1",
"}  c #D9BCB3",
"|  c #DAC0B7",
" . c #DAC0B8",
".. c #DCC2B9",
"X. c #E0C2B8",
"o. c #E2C5BB",
"O. c #E3C6BC",
"+. c #E5C9BF",
"@. c #E7CBC0",
"#. c #E7CCC1",
"$. c #E8CDC2",
"%. c #EACFC4",
"&. c #EBD0C5",
/* pixels */
"p p p p p p p p p p p p p p p p p p p p p p p p p p p p p p p 0 ",
"p p p p p p p p p p p p p p p p p p p p p p p p p p p p p p p 0 ",
"p p p p p p p p p p p p p p p p p p p p p p p p p p p p p p p 0 ",
"p p p p p p p p p p p p p p p p p p p p p p p p p p p p p p p 0 ",
"p p p p       p p p p       p p p p       p p p p       p p p 0 ",
"p p p p       p p p y w w w w w w w w w w p p p p       p p p 0 ",
"p p p p       p p p w X X X X X . . . X X t p p p       p p p 0 ",
"p p p p p p p p p - 8 I I I I ' | | | ' I & 5 p p p p p p p p 0 ",
"p p p p p p p p 5 u c ^ ^ / ] +.&.&.&.+.} + - p p p p p p p p 0 ",
"p p p p p p p y O N ^ ^ ^ ` &.&.&.&.&.&.&.o - p p p p p p p p 0 ",
"p p p p p p p y O N ^ ^ ^ ` &.&.&.&.&.&.&.o - p p p p p p p p 0 ",
"p p p p       y O N ^ ^ ^ W J J ) &.&.[ G X - p p       p p p 0 ",
"p p p p       y O N ^ ^ ^ K . . M &.&.Q . . - p p       p p p 0 ",
"p p p p       y O N ^ ^ ^ K . . M &.&.Q . . - p p       p p p 0 ",
"p p p p p p p y 5 u v ^ ^ R V H _ &.&. .Y X - p p p p p p p p 0 ",
"p p p p p p p p p - 9 ^ ^ W E o.%.@.%.%.$.o - p p p p p p p p 0 ",
"p p p p p p p p p p w . . : b } } b O.{ ^ @ - p p p p p p p p 0 ",
"p p p p p p p p p p q . D ! ` P S n F F A + - p p p p p p p p 0 ",
"p p p p       p p p w . ( o.o.T F F F Z C + - p p       p p p 0 ",
"p p p p       p p p w . L ^ ^ O.&.&.&.{ ^ @ - p p       p p p 0 ",
"p p p p       p p = > ..+.#.#.` / / / { +.x 3 % p       p p p 0 ",
"p p p p p p p p 6 9 k X.~ ) X.{ ] ] ] ) ~ b 3 # p p p p p p p 0 ",
"p p p p p p p y O N ^ ^ d j ^ $.$.$.$.B . x 4 # p p p p p p p 0 ",
"p p p p p p p p e 7 1 1 @ h $.l , < m s . $ 2 r p p p p p p p 0 ",
"p p p p p p p p p 5 * . l U &.i . X g f 4 X - p p p p p p p p 0 ",
"p p p p       p p p w . ~ &.&.i . X g b z X - p p       p p p 0 ",
"p p p p       p p p p       a p y y       y p p p       p p p 0 ",
"p p p p       p p p p       p p p p       p p p p       p p p 0 ",
"p p p p p p p p p p p p p p p p p p p p p p p p p p p p p p p 0 ",
"p p p p p p p p p p p p p p p p p p p p p p p p p p p p p p p 0 ",
"p p p p p p p p p p p p p p p p p p p p p p p p p p p p p p p 0 ",
"0 0 0 0 0 0 0 0 0 0 0 0 0 0 0 0 0 0 0 0 0 0 0 0 0 0 0 0 0 0 0 ; "
};
