/* XPM */
static char *c1fb56424a044c00b2908334896862ecARj9MMeRhlkXgpiy[] = {
/* columns rows colors chars-per-pixel */
"32 32 108 2 ",
"   c #371C3B",
".  c #3B213D",
"X  c #3C223E",
"o  c #3D243E",
"O  c #3F2640",
"+  c #412941",
"@  c #442F44",
"#  c #443045",
"$  c #493046",
"%  c #4B3348",
"&  c #4D3648",
"*  c #49384A",
"=  c #4E3F4E",
"-  c #583C4B",
";  c #554352",
":  c #544A55",
">  c #5A515A",
",  c #5D565D",
"<  c #5E585E",
"1  c #5D5C5C",
"2  c #674955",
"3  c #624D5A",
"4  c #674F59",
"5  c #63585E",
"6  c #74555D",
"7  c #78555D",
"8  c #615B61",
"9  c #635E62",
"0  c #645E63",
"q  c #685960",
"w  c #6D5961",
"e  c #725F65",
"r  c #666565",
"t  c #686467",
"y  c #6A6769",
"u  c #6C696B",
"i  c #6D6B6C",
"p  c #6F6D6E",
"a  c #736066",
"s  c #756368",
"d  c #7A656B",
"f  c #706F6F",
"g  c #70706F",
"h  c #737171",
"j  c #836267",
"k  c #80656B",
"l  c #90696C",
"z  c #996F71",
"x  c #867074",
"c  c #8D7173",
"v  c #8D7175",
"b  c #897477",
"n  c #8C7779",
"m  c #9F7374",
"M  c #9D7475",
"N  c #95797A",
"B  c #987B7C",
"V  c #A07575",
"C  c #A37D7C",
"Z  c #9F8182",
"A  c #9C8585",
"S  c #A08282",
"D  c #A58E8D",
"F  c #A98A89",
"G  c #B28B88",
"H  c #B38D8A",
"J  c #B48F8B",
"K  c #A8918F",
"L  c #B5908C",
"P  c #AC9692",
"I  c #B09694",
"U  c #B09995",
"Y  c #BC9B97",
"T  c #BF9C97",
"R  c #B8A19C",
"E  c #BCA5A0",
"W  c #C09E9A",
"Q  c #C6A39E",
"!  c #C8A6A1",
"~  c #C0A8A2",
"^  c #C4AAA4",
"/  c #C6ACA6",
"(  c #CCA8A2",
")  c #CEAAA4",
"_  c #C9ADA7",
"`  c #C7AEA8",
"'  c #C9AFA8",
"]  c #D1AFA8",
"[  c #CAB1AA",
"{  c #D3B1AA",
"}  c #D3B4AC",
"|  c #D5B4AC",
" . c #D4B8B0",
".. c #D5BCB3",
"X. c #D9BAB1",
"o. c #D9BCB3",
"O. c #DCBCB4",
"+. c #DAC0B8",
"@. c #DFC1B8",
"#. c #E0C2B8",
"$. c #E2C5BB",
"%. c #E3C7BD",
"&. c #E5C9BE",
"*. c #E5CAC0",
"=. c #EACEC3",
"-. c #EACFC4",
";. c #EBD0C5",
":. c #ECD1C6",
/* pixels */
"f f f f f f f f f f f f f f f f f f f f f f f f f f f f f f f r ",
"f f f f f f f f f f f f f f f f f f f f f f f f f f f f f f f r ",
"f f f f f f f f f f f f f f f f f f f f f f f f f f f f f f f r ",
"f f f f f f f f f f f f f f f f f f f f f f f f f f f f f f f r ",
"f f f f f f f f f f f f f f f f f f f f f f f f f f f f f f f r ",
"f f f f f f f f f f p y y y y y y y y y y f f f f f f f f f f r ",
"f f f f f f f f f f y O O O O X . . . X O i f f f f f f f f f r ",
"f f f f f f f f f , w W W W W  .+.+.+.} W ; 9 f f f f f f f f r ",
"f f f f f f f f 9 s N ( ( ) | &.;.;.;.&.O.@ < f f f f f f f f r ",
"f f f f f f f p @ S ( ( ( { ;.;.;.;.;.;.:.+ < f f f f f f f f r ",
"f f f f f f f p @ Z ( ( ( { ;.;.;.;.;.;.:.+ < f f f f f f f f r ",
"f f f f f f f p @ Z ( ( ( ! U U ' ;.;...P + < f f f f f f f f r ",
"f f f f f f f p @ Z ( ( ( Y X O A ;.;.~ O O < f f f f f f f f r ",
"f f f f f f f p @ Z ( ( ( Y X O A ;.;.~ O O < f f f f f f f f r ",
"f f f f f f f f 8 s B ( ( Q F I [ ;.;.+.E + < f f f f f f f f r ",
"f f f f f f f f f , e ( ( ! ! $.-.*.-.-.-.+ < f f f f f f f f r ",
"f f f f f f f f f f t o o 2 V o.o.m %.o.( % < f f f f f f f f r ",
"f f f f f f f f f f t o K ^ } Y J V L L J $ < f f f f f f f f r ",
"f f f f f f f f f f t o _ $.$.T L L L H G $ < f f f f f f f f r ",
"f f f f f f f f f f y   Y ! ! %.:.:.:.o.( $ < g f f f f f f f r ",
"f f f f f f f f f > 3 @.*.=.=.] ) ) ) X.*.M 6 = g f f f f f f r ",
"f f f f f f f f 0 a v #./ ' @.X.| | | _ ^ V 6 * g f f f f f f r ",
"f f f f f f f p # S ( ( k c ( =.-.-.-.D o V 7 * g f f f f f f r ",
"f f f f f f f f u q 4 4 & x =.b 3 3 C j O - 5 u f f f f f f f r ",
"f f f f f f f f f 9 : O n R :.d O O z l 7 O < f f f f f f f f r ",
"f f f f f f f f f f t o ` :.:.d o o z V m o , f f f f f f f f r ",
"f f f f f f f f f f f p h h h f p p f f f p f f f f f f f f f r ",
"f f f f f f f f f f f f f f f f f f f f f f f f f f f f f f f r ",
"f f f f f f f f f f f f f f f f f f f f f f f f f f f f f f f r ",
"f f f f f f f f f f f f f f f f f f f f f f f f f f f f f f f r ",
"f f f f f f f f f f f f f f f f f f f f f f f f f f f f f f f r ",
"r r r r r r r r r r r r r r r r r r r r r r r r r r r r r r r 1 "
};
