/* XPM */
static char *e9b48cb892a44fc1b38689e734f1b061IgRGIh5UDPXOvhTh[] = {
/* columns rows colors chars-per-pixel */
"32 32 2 1 ",
"  c black",
". c #706F6F",
/* pixels */
"................................",
"................................",
"................................",
"................................",
"....   ....   ....   ....   ....",
"....   ....   ....   ....   ....",
"....   ....   ....   ....   ....",
"................................",
"................................",
"................................",
"................................",
"....   ....   ....   ....   ....",
"....   ....   ....   ....   ....",
"....   ....   ....   ....   ....",
"................................",
"................................",
"................................",
"................................",
"....   ....   ....   ....   ....",
"....   ....   ....   ....   ....",
"....   ....   ....   ....   ....",
"................................",
"................................",
"................................",
"................................",
"....   ....   ....   ....   ....",
"....   ....   ....   ....   ....",
"....   ....   ....   ....   ....",
"................................",
"................................",
"................................",
"................................"
};
