/* XPM */
static char *_767b9c1737e4ccff52c159ca5aa5cdcQDSebmJ9mAn1NClr[] = {
/* columns rows colors chars-per-pixel */
"32 32 3 1 ",
"  c black",
". c #706F6F",
"X c white",
/* pixels */
"................................",
"................................",
"......X......X......X......X....",
"......X......X......X......X....",
"....XXX....XXX....XXX....XXX....",
"....XXX....XXX....XXX....XXX....",
"....   ....   ....   ....   ....",
"................................",
"................................",
"......X......X......X......X....",
"......X......X......X......X....",
"....XXX....XXX....XXX....XXX....",
"....XXX....XXX....XXX....XXX....",
"....   ....   ....   ....   ....",
"................................",
"................................",
"......X......X......X......X....",
"......X......X......X......X....",
"....XXX....XXX....XXX....XXX....",
"....XXX....XXX....XXX....XXX....",
"....   ....   ....   ....   ....",
"................................",
"................................",
"......X......X......X......X....",
"......X......X......X......X....",
"....XXX....XXX....XXX....XXX....",
"....XXX....XXX....XXX....XXX....",
"....   ....   ....   ....   ....",
"................................",
"................................",
"................................",
"................................"
};
