/* XPM */
static char *_d95c8a7743140e59dcc5419efa2cd285dcbz5p3Z7cwRUf0[] = {
/* columns rows colors chars-per-pixel */
"32 32 9 1 ",
"  c #353535",
". c #3F3F3F",
"X c #553A1F",
"o c #5A4424",
"O c #664D28",
"+ c #6B5332",
"@ c #785836",
"# c #686868",
"$ c #805E36",
/* pixels */
"XX$$@@oo$$$$XX$$++oo@@$$oo@@++@@",
"XX$$@@oo$$$$XX$$++oo@@$$oo@@++@@",
"XX$$@@oo$$++XXOO++oo++@@oo++@@++",
"XX$$@@oo$$++XXOO++oo++@@oo++@@++",
"oo++$$XX@@@@ooOO++XX@@++XX$$++OO",
"oo++$$XX@@@@ooOO++XX@@++XX$$++OO",
"XX..##oo..##oo..##oo..##oo..##  ",
"XX..##oo..##oo..##oo..##oo..##  ",
"ooOO++ooOO++XXOO++ooOO++XXOO++$$",
"ooOO++ooOO++XXOO++ooOO++XXOO++$$",
"oo++$$XX++@@oo++$$XX++$$XX$$OO++",
"oo++$$XX++@@oo++$$XX++$$XX$$OO++",
"oo++$$XX@@@@ooOO++XX@@++XX$$++OO",
"oo++$$XX@@@@ooOO++XX@@++XX$$++OO",
"XX@@@@XX@@++ooOO++oo@@OOXX@@++OO",
"XX@@@@XX@@++ooOO++oo@@OOXX@@++OO",
"XX@@++XX@@@@oo++OOXX$$OOXX@@++$$",
"XX@@++XX@@@@oo++OOXX$$OOXX@@++$$",
"XX$$OOoo$$@@XX++OOXX$$++XX++@@$$",
"XX$$OOoo$$@@XX++OOXX$$++XX++@@$$",
"oo$$++oo$$++oo$$OOoo$$@@ooOO$$@@",
"oo$$++oo$$++oo$$OOoo$$@@ooOO$$@@",
"XX$$$$oo++OOXX$$$$oo$$$$XXOO++@@",
"XX$$$$oo++OOXX$$$$oo$$$$XXOO++@@",
"oo..##XX..##XX..##oo..##XX..##  ",
"oo..##XX..##XX..##oo..##XX..##  ",
"XX$$++oo$$++oo$$OOoo$$@@oo++$$++",
"XX$$++oo$$++oo$$OOoo$$@@oo++$$++",
"XX$$@@oo$$$$XX$$++oo@@$$oo$$++OO",
"XX$$@@oo$$$$XX$$++oo@@$$oo$$++OO",
"XX$$@@oo$$++XXOO++ooOO@@oo++@@OO",
"XX$$@@oo$$++XXOO++ooOO@@oo++@@OO"
};
