/* XPM */
static char *efc1af89765741d69f27601f090ceed4[] = {
/* columns rows colors chars-per-pixel */
"32 32 23 1 ",
"  c black",
". c #0C0C0C",
"X c #212020",
"o c gray17",
"O c gray18",
"+ c #323131",
"@ c #373737",
"# c gray22",
"$ c #3E3E3E",
"% c gray26",
"& c #464646",
"* c #484747",
"= c #4B4B4B",
"- c #4C4B4B",
"; c gray31",
": c #504F4F",
"> c #515151",
", c #545353",
"< c #555555",
"1 c #5B5B5B",
"2 c #5C5B5B",
"3 c gray36",
"4 c #646363",
/* pixels */
"%&&&&&&&&&&&&&&&&&&&-@O=&&&&&&&%",
"><<<<<<<<<<<<<<<<<<<<2+><<<<<<<>",
"><<<<<<<<<<<<<<<<<<<<<3#1<<<<<<>",
"><<<<<<<<<<<<<<<<<<<<<<=1<<<<<<>",
"><<<<<<<<<<<<<<<<<<<<<<=1<<<<<<>",
"><<<<<<<<<<<<<<<<<<<<<<*1<<<<<<>",
"><<<<<<<<<<<<<<<<<<<<<<=1<<<<<<>",
"><<<<<<<<<<<<<<<<<<<<<<*1<<<<<<>",
"><<<<<<<<<<<<<<<<<<<<<<*1<<<<<<>",
"><<<<<<<<<<<<<<<<<<<<<<=1<<<<<<>",
"><<<<<<<<<<<<<<<<<<<<<<*1<<<<<<>",
"><<<<<<<<<<<<<<<<<<<<<<=1<<<<<<>",
"><<<<<<<<<<<<<<<<<<<<<<=1<<<<<<>",
"><<<<<<<<<<<<<<<<<<<<<<*1<<<<<<>",
"><<<<<<<<<<<<<<<<<<<<<<=1<<<<<<>",
";>>>>>>>>>>>:>;>>:::;>&.>:;>>;>;",
";>>>>>>> X$=,<<<<<<<<<<<<<<<<<<>",
"><<<<<<2&2<<<<<<<<<<<<<<<<<<<<<>",
"><<<<<<2&<<<<<<<<<<<<<<<<<<<<<<>",
"><<<<<<2&<<<<<<<<<<<<<<<<<<<<<<>",
"><<<<<<2&<<<<<<<<<<<<<<<<<<<<<<>",
"><<<<<<2&<<<<<<<<<<<<<<<<<<<<<<>",
"><<<<<<2&<<<<<<<<<<<<<<<<<<<<<<>",
"><<<<<<2&<<<<<<<<<<<<<<<<<<<<<<>",
"><<<<<<2&<<<<<<<<<<<<<<<<<<<<<<>",
"><<<<<<2&<<<<<<<<<<<<<<<<<<<<<<>",
"><<<<<<2&<<<<<<<<<<<<<<<<<<<<<<>",
"><<<<<<2*<<<<<<<<<<<<<<<<<<<<<<>",
"><<<<<<3+<1<<<<<<<<<<<<<<<<<<<<>",
"><<<<<<<3X4<<<<<<<<<<<<<<<<<<<<>",
"><<<<<<<1o3<<<<<<<<<<<<<<<<<<<<>",
"$%%%%%%%%O$%%%%%%%%%%%%%%%%%%%%$"
};
